<?xml version="1.0" standalone="no"?><!DOCTYPE svg PUBLIC "-//W3C//DTD SVG 1.1//EN" "http://www.w3.org/Graphics/SVG/1.1/DTD/svg11.dtd"><svg class="icon" width="200px" height="200.00px" viewBox="0 0 1024 1024" version="1.1" xmlns="http://www.w3.org/2000/svg"><path fill="#707070" d="M860.672 121.344H742.4v-56.32c0-22.528-18.432-40.96-40.96-40.96s-40.96 18.432-40.96 40.96v56.32H363.52v-56.32c0-22.528-18.432-40.96-40.96-40.96s-40.96 18.432-40.96 40.96v56.32H163.328C87.552 121.344 25.6 182.784 25.6 259.072v600.064c0 75.776 61.952 137.728 137.728 137.728h697.344c75.776 0 137.728-61.952 137.728-137.728V259.072c0-76.288-61.952-137.728-137.728-137.728zM916.48 859.136c0 30.72-25.088 55.808-55.808 55.808H163.328c-30.72 0-55.808-25.088-55.808-55.808V259.072c0-30.72 25.088-55.808 55.808-55.808H281.6v56.32c0 22.528 18.432 40.96 40.96 40.96s40.96-18.432 40.96-40.96v-56.32h296.96v56.32c0 22.528 18.432 40.96 40.96 40.96s40.96-18.432 40.96-40.96v-56.32h118.272c30.72 0 55.808 25.088 55.808 55.808v600.064z"  /><path fill="#707070" d="M322.56 492.544m-40.96 0a40.96 40.96 0 1 0 81.92 0 40.96 40.96 0 1 0-81.92 0Z"  /><path fill="#707070" d="M701.44 492.544m-40.96 0a40.96 40.96 0 1 0 81.92 0 40.96 40.96 0 1 0-81.92 0Z"  /><path fill="#707070" d="M322.56 697.344m-40.96 0a40.96 40.96 0 1 0 81.92 0 40.96 40.96 0 1 0-81.92 0Z"  /><path fill="#707070" d="M701.44 697.344m-40.96 0a40.96 40.96 0 1 0 81.92 0 40.96 40.96 0 1 0-81.92 0Z"  /></svg>